<mxfile host="app.diagrams.net" agent="Mozilla/5.0 (Windows NT 10.0; Win64; x64; rv:131.0) Gecko/20100101 Firefox/131.0" version="24.7.17">
  <diagram id="C5RBs43oDa-KdzZeNtuy" name="Page-1">
    <mxGraphModel grid="1" page="1" gridSize="10" guides="1" tooltips="1" connect="1" arrows="1" fold="1" pageScale="1" pageWidth="1920" pageHeight="1200" math="0" shadow="0">
      <root>
        <mxCell id="WIyWlLk6GJQsqaUBKTNV-0" />
        <mxCell id="WIyWlLk6GJQsqaUBKTNV-1" parent="WIyWlLk6GJQsqaUBKTNV-0" />
        <mxCell id="mY0d5QbnjTTSCLkn-hRu-0" value="&lt;div&gt;General DisArrays&lt;br&gt;&lt;/div&gt;&lt;div&gt;Use Case Diagram&lt;/div&gt;&lt;div&gt;10/06/2024&lt;/div&gt;" style="text;html=1;align=center;verticalAlign=middle;whiteSpace=wrap;rounded=0;" vertex="1" parent="WIyWlLk6GJQsqaUBKTNV-1">
          <mxGeometry width="180" height="90" as="geometry" />
        </mxCell>
        <mxCell id="mY0d5QbnjTTSCLkn-hRu-1" value="Driver" style="shape=umlActor;verticalLabelPosition=bottom;verticalAlign=top;html=1;outlineConnect=0;" vertex="1" parent="WIyWlLk6GJQsqaUBKTNV-1">
          <mxGeometry x="110" y="440" width="30" height="60" as="geometry" />
        </mxCell>
        <mxCell id="mY0d5QbnjTTSCLkn-hRu-2" value="&lt;div&gt;Owner&lt;/div&gt;" style="shape=umlActor;verticalLabelPosition=bottom;verticalAlign=top;html=1;outlineConnect=0;" vertex="1" parent="WIyWlLk6GJQsqaUBKTNV-1">
          <mxGeometry x="110" y="235" width="30" height="60" as="geometry" />
        </mxCell>
        <mxCell id="mY0d5QbnjTTSCLkn-hRu-4" value="" style="whiteSpace=wrap;html=1;imageAspect=0;" vertex="1" parent="WIyWlLk6GJQsqaUBKTNV-1">
          <mxGeometry x="180" y="60" width="400" height="500" as="geometry" />
        </mxCell>
        <mxCell id="mY0d5QbnjTTSCLkn-hRu-5" value="Manage Drivers" style="ellipse;whiteSpace=wrap;html=1;" vertex="1" parent="WIyWlLk6GJQsqaUBKTNV-1">
          <mxGeometry x="272.5" y="350" width="125" height="40" as="geometry" />
        </mxCell>
        <mxCell id="mY0d5QbnjTTSCLkn-hRu-6" value="&lt;div&gt;Manage GeoFencing&lt;/div&gt;" style="ellipse;whiteSpace=wrap;html=1;" vertex="1" parent="WIyWlLk6GJQsqaUBKTNV-1">
          <mxGeometry x="265" y="300" width="140" height="40" as="geometry" />
        </mxCell>
        <mxCell id="mY0d5QbnjTTSCLkn-hRu-7" value="" style="endArrow=none;html=1;rounded=0;entryX=0;entryY=0.5;entryDx=0;entryDy=0;" edge="1" parent="WIyWlLk6GJQsqaUBKTNV-1" source="mY0d5QbnjTTSCLkn-hRu-2" target="mY0d5QbnjTTSCLkn-hRu-5">
          <mxGeometry width="50" height="50" relative="1" as="geometry">
            <mxPoint x="250" y="450" as="sourcePoint" />
            <mxPoint x="300" y="400" as="targetPoint" />
          </mxGeometry>
        </mxCell>
        <mxCell id="mY0d5QbnjTTSCLkn-hRu-8" value="" style="endArrow=none;html=1;rounded=0;entryX=0;entryY=0.5;entryDx=0;entryDy=0;" edge="1" parent="WIyWlLk6GJQsqaUBKTNV-1" source="mY0d5QbnjTTSCLkn-hRu-2" target="mY0d5QbnjTTSCLkn-hRu-6">
          <mxGeometry width="50" height="50" relative="1" as="geometry">
            <mxPoint x="250" y="450" as="sourcePoint" />
            <mxPoint x="300" y="400" as="targetPoint" />
          </mxGeometry>
        </mxCell>
        <mxCell id="mY0d5QbnjTTSCLkn-hRu-9" value="&lt;div&gt;Control Accessories&lt;/div&gt;" style="ellipse;whiteSpace=wrap;html=1;" vertex="1" parent="WIyWlLk6GJQsqaUBKTNV-1">
          <mxGeometry x="265" y="450" width="140" height="40" as="geometry" />
        </mxCell>
        <mxCell id="mY0d5QbnjTTSCLkn-hRu-10" value="&lt;div&gt;Control Security Features&lt;br&gt;&lt;/div&gt;" style="ellipse;whiteSpace=wrap;html=1;" vertex="1" parent="WIyWlLk6GJQsqaUBKTNV-1">
          <mxGeometry x="265" y="400" width="140" height="40" as="geometry" />
        </mxCell>
        <mxCell id="mY0d5QbnjTTSCLkn-hRu-11" value="" style="endArrow=none;html=1;rounded=0;entryX=0;entryY=0.5;entryDx=0;entryDy=0;startArrow=none;startFill=0;endFill=0;" edge="1" parent="WIyWlLk6GJQsqaUBKTNV-1" source="mY0d5QbnjTTSCLkn-hRu-1" target="mY0d5QbnjTTSCLkn-hRu-9">
          <mxGeometry width="50" height="50" relative="1" as="geometry">
            <mxPoint x="250" y="400" as="sourcePoint" />
            <mxPoint x="300" y="350" as="targetPoint" />
          </mxGeometry>
        </mxCell>
        <mxCell id="-EQ7jqRNdHvY4-WghGUq-2" value="&lt;div&gt;View Status&lt;/div&gt;" style="ellipse;whiteSpace=wrap;html=1;" vertex="1" parent="WIyWlLk6GJQsqaUBKTNV-1">
          <mxGeometry x="265" y="230" width="140" height="40" as="geometry" />
        </mxCell>
        <mxCell id="-EQ7jqRNdHvY4-WghGUq-3" value="&lt;div&gt;Remote Start&lt;/div&gt;" style="ellipse;whiteSpace=wrap;html=1;" vertex="1" parent="WIyWlLk6GJQsqaUBKTNV-1">
          <mxGeometry x="265" y="500" width="140" height="40" as="geometry" />
        </mxCell>
        <mxCell id="mY0d5QbnjTTSCLkn-hRu-12" value="" style="endArrow=none;html=1;rounded=0;entryX=0;entryY=0.5;entryDx=0;entryDy=0;" edge="1" parent="WIyWlLk6GJQsqaUBKTNV-1" target="mY0d5QbnjTTSCLkn-hRu-9">
          <mxGeometry width="50" height="50" relative="1" as="geometry">
            <mxPoint x="140" y="280" as="sourcePoint" />
            <mxPoint x="300" y="350" as="targetPoint" />
          </mxGeometry>
        </mxCell>
        <mxCell id="qOAoWoaAi98GnRkwyGvY-7" style="rounded=0;orthogonalLoop=1;jettySize=auto;html=1;endArrow=none;endFill=0;exitX=0;exitY=0.5;exitDx=0;exitDy=0;" edge="1" parent="WIyWlLk6GJQsqaUBKTNV-1" source="-EQ7jqRNdHvY4-WghGUq-4" target="qOAoWoaAi98GnRkwyGvY-4">
          <mxGeometry relative="1" as="geometry">
            <mxPoint x="150" y="160" as="targetPoint" />
          </mxGeometry>
        </mxCell>
        <mxCell id="-EQ7jqRNdHvY4-WghGUq-4" value="Vehicle Logs" style="ellipse;whiteSpace=wrap;html=1;" vertex="1" parent="WIyWlLk6GJQsqaUBKTNV-1">
          <mxGeometry x="265" y="70" width="140" height="40" as="geometry" />
        </mxCell>
        <mxCell id="mY0d5QbnjTTSCLkn-hRu-13" value="" style="endArrow=none;html=1;rounded=0;entryX=0.01;entryY=0.625;entryDx=0;entryDy=0;entryPerimeter=0;" edge="1" parent="WIyWlLk6GJQsqaUBKTNV-1" source="mY0d5QbnjTTSCLkn-hRu-1" target="mY0d5QbnjTTSCLkn-hRu-10">
          <mxGeometry width="50" height="50" relative="1" as="geometry">
            <mxPoint x="250" y="470" as="sourcePoint" />
            <mxPoint x="300" y="420" as="targetPoint" />
          </mxGeometry>
        </mxCell>
        <mxCell id="mY0d5QbnjTTSCLkn-hRu-14" value="" style="endArrow=none;html=1;rounded=0;entryX=-0.001;entryY=0.411;entryDx=0;entryDy=0;entryPerimeter=0;" edge="1" parent="WIyWlLk6GJQsqaUBKTNV-1" source="mY0d5QbnjTTSCLkn-hRu-2" target="mY0d5QbnjTTSCLkn-hRu-10">
          <mxGeometry width="50" height="50" relative="1" as="geometry">
            <mxPoint x="250" y="470" as="sourcePoint" />
            <mxPoint x="300" y="420" as="targetPoint" />
          </mxGeometry>
        </mxCell>
        <mxCell id="qOAoWoaAi98GnRkwyGvY-8" style="rounded=0;orthogonalLoop=1;jettySize=auto;html=1;endArrow=none;endFill=0;exitX=0;exitY=0.5;exitDx=0;exitDy=0;" edge="1" parent="WIyWlLk6GJQsqaUBKTNV-1" source="-EQ7jqRNdHvY4-WghGUq-2" target="qOAoWoaAi98GnRkwyGvY-4">
          <mxGeometry relative="1" as="geometry" />
        </mxCell>
        <mxCell id="qOAoWoaAi98GnRkwyGvY-2" value="Permissions" style="ellipse;whiteSpace=wrap;html=1;" vertex="1" parent="WIyWlLk6GJQsqaUBKTNV-1">
          <mxGeometry x="265" y="130" width="140" height="40" as="geometry" />
        </mxCell>
        <mxCell id="qOAoWoaAi98GnRkwyGvY-3" style="rounded=0;orthogonalLoop=1;jettySize=auto;html=1;exitX=0;exitY=0.5;exitDx=0;exitDy=0;endArrow=none;endFill=0;" edge="1" parent="WIyWlLk6GJQsqaUBKTNV-1" source="qOAoWoaAi98GnRkwyGvY-2" target="mY0d5QbnjTTSCLkn-hRu-2">
          <mxGeometry relative="1" as="geometry" />
        </mxCell>
        <mxCell id="mY0d5QbnjTTSCLkn-hRu-16" value="" style="endArrow=none;html=1;rounded=0;entryX=0;entryY=0.5;entryDx=0;entryDy=0;" edge="1" parent="WIyWlLk6GJQsqaUBKTNV-1" source="mY0d5QbnjTTSCLkn-hRu-1" target="-EQ7jqRNdHvY4-WghGUq-3">
          <mxGeometry width="50" height="50" relative="1" as="geometry">
            <mxPoint x="240" y="430" as="sourcePoint" />
            <mxPoint x="290" y="380" as="targetPoint" />
          </mxGeometry>
        </mxCell>
        <mxCell id="mY0d5QbnjTTSCLkn-hRu-17" value="" style="endArrow=none;html=1;rounded=0;entryX=0;entryY=0.5;entryDx=0;entryDy=0;" edge="1" parent="WIyWlLk6GJQsqaUBKTNV-1" source="mY0d5QbnjTTSCLkn-hRu-2" target="-EQ7jqRNdHvY4-WghGUq-2">
          <mxGeometry width="50" height="50" relative="1" as="geometry">
            <mxPoint x="140" y="340" as="sourcePoint" />
            <mxPoint x="160" y="360" as="targetPoint" />
          </mxGeometry>
        </mxCell>
        <mxCell id="mY0d5QbnjTTSCLkn-hRu-18" value="" style="endArrow=none;html=1;rounded=0;entryX=0;entryY=0.5;entryDx=0;entryDy=0;" edge="1" parent="WIyWlLk6GJQsqaUBKTNV-1" target="-EQ7jqRNdHvY4-WghGUq-3">
          <mxGeometry width="50" height="50" relative="1" as="geometry">
            <mxPoint x="140" y="280" as="sourcePoint" />
            <mxPoint x="290" y="380" as="targetPoint" />
          </mxGeometry>
        </mxCell>
        <mxCell id="-EQ7jqRNdHvY4-WghGUq-6" value="" style="endArrow=none;html=1;rounded=0;entryX=0;entryY=0.5;entryDx=0;entryDy=0;exitX=1;exitY=0.3333333333333333;exitDx=0;exitDy=0;exitPerimeter=0;" edge="1" parent="WIyWlLk6GJQsqaUBKTNV-1" source="mY0d5QbnjTTSCLkn-hRu-2" target="-EQ7jqRNdHvY4-WghGUq-4">
          <mxGeometry width="50" height="50" relative="1" as="geometry">
            <mxPoint x="150" y="180" as="sourcePoint" />
            <mxPoint x="260" y="150" as="targetPoint" />
          </mxGeometry>
        </mxCell>
        <mxCell id="qOAoWoaAi98GnRkwyGvY-4" value="&lt;div&gt;Technician&lt;/div&gt;" style="shape=umlActor;verticalLabelPosition=bottom;verticalAlign=top;html=1;outlineConnect=0;" vertex="1" parent="WIyWlLk6GJQsqaUBKTNV-1">
          <mxGeometry x="110" y="120" width="30" height="60" as="geometry" />
        </mxCell>
        <mxCell id="-EQ7jqRNdHvY4-WghGUq-8" value="&lt;div&gt;Adding/Removing Vehicle&lt;/div&gt;" style="ellipse;whiteSpace=wrap;html=1;" vertex="1" parent="WIyWlLk6GJQsqaUBKTNV-1">
          <mxGeometry x="265" y="180" width="140" height="40" as="geometry" />
        </mxCell>
        <mxCell id="-EQ7jqRNdHvY4-WghGUq-9" value="" style="endArrow=none;html=1;rounded=0;entryX=1;entryY=0.3333333333333333;entryDx=0;entryDy=0;entryPerimeter=0;exitX=0;exitY=0.5;exitDx=0;exitDy=0;" edge="1" parent="WIyWlLk6GJQsqaUBKTNV-1" source="-EQ7jqRNdHvY4-WghGUq-8" target="mY0d5QbnjTTSCLkn-hRu-2">
          <mxGeometry width="50" height="50" relative="1" as="geometry">
            <mxPoint x="190" y="580" as="sourcePoint" />
            <mxPoint x="240" y="530" as="targetPoint" />
          </mxGeometry>
        </mxCell>
        <mxCell id="mY0d5QbnjTTSCLkn-hRu-19" value="&lt;div&gt;Enable/Disable Features&lt;/div&gt;" style="ellipse;whiteSpace=wrap;html=1;" vertex="1" parent="WIyWlLk6GJQsqaUBKTNV-1">
          <mxGeometry x="430" y="270" width="140" height="40" as="geometry" />
        </mxCell>
        <mxCell id="mY0d5QbnjTTSCLkn-hRu-20" value="" style="endArrow=none;html=1;rounded=0;entryX=0;entryY=0.5;entryDx=0;entryDy=0;" edge="1" parent="WIyWlLk6GJQsqaUBKTNV-1" source="mY0d5QbnjTTSCLkn-hRu-2" target="mY0d5QbnjTTSCLkn-hRu-19">
          <mxGeometry width="50" height="50" relative="1" as="geometry">
            <mxPoint x="320" y="380" as="sourcePoint" />
            <mxPoint x="370" y="330" as="targetPoint" />
          </mxGeometry>
        </mxCell>
      </root>
    </mxGraphModel>
  </diagram>
</mxfile>
